<svg width="245" height="48" viewBox="0 0 245 48" fill="none" xmlns="http://www.w3.org/2000/svg">
<path d="M68.9716 32.2727V41H67.9148V33.3807H67.8636L65.733 34.7955V33.7216L67.9148 32.2727H68.9716ZM74.2088 41.1193C73.7088 41.1193 73.2585 41.0199 72.858 40.821C72.4574 40.6222 72.1364 40.3494 71.8949 40.0028C71.6534 39.6562 71.5213 39.2614 71.4986 38.8182H72.5213C72.5611 39.2131 72.7401 39.5398 73.0582 39.7983C73.3793 40.054 73.7628 40.1818 74.2088 40.1818C74.5668 40.1818 74.8849 40.098 75.1634 39.9304C75.4446 39.7628 75.6648 39.5327 75.8239 39.2401C75.9858 38.9446 76.0668 38.6108 76.0668 38.2386C76.0668 37.858 75.983 37.5185 75.8153 37.2202C75.6506 36.919 75.4233 36.6818 75.1335 36.5085C74.8438 36.3352 74.5128 36.2472 74.1406 36.2443C73.8736 36.2415 73.5994 36.2827 73.3182 36.3679C73.0369 36.4503 72.8054 36.5568 72.6236 36.6875L71.6349 36.5682L72.1634 32.2727H76.6974V33.2102H73.0497L72.7429 35.7841H72.794C72.973 35.642 73.1974 35.5241 73.4673 35.4304C73.7372 35.3366 74.0185 35.2898 74.3111 35.2898C74.8452 35.2898 75.321 35.4176 75.7386 35.6733C76.1591 35.9261 76.4886 36.2727 76.7273 36.7131C76.9688 37.1534 77.0895 37.6562 77.0895 38.2216C77.0895 38.7784 76.9645 39.2756 76.7145 39.7131C76.4673 40.1477 76.1264 40.4915 75.6918 40.7443C75.2571 40.9943 74.7628 41.1193 74.2088 41.1193ZM82.1744 34.4545H83.18V41.4773C83.18 41.8807 83.1104 42.2301 82.9712 42.5256C82.8349 42.821 82.6275 43.0497 82.3491 43.2116C82.0735 43.3736 81.7255 43.4545 81.305 43.4545C81.271 43.4545 81.2369 43.4545 81.2028 43.4545C81.1687 43.4545 81.1346 43.4545 81.1005 43.4545V42.517C81.1346 42.517 81.1658 42.517 81.1942 42.517C81.2227 42.517 81.2539 42.517 81.288 42.517C81.5948 42.517 81.8192 42.4261 81.9613 42.2443C82.1033 42.0653 82.1744 41.8097 82.1744 41.4773V34.4545ZM82.6687 33.3636C82.4727 33.3636 82.3036 33.2969 82.1616 33.1634C82.0224 33.0298 81.9528 32.8693 81.9528 32.6818C81.9528 32.4943 82.0224 32.3338 82.1616 32.2003C82.3036 32.0668 82.4727 32 82.6687 32C82.8647 32 83.0323 32.0668 83.1715 32.2003C83.3136 32.3338 83.3846 32.4943 83.3846 32.6818C83.3846 32.8693 83.3136 33.0298 83.1715 33.1634C83.0323 33.2969 82.8647 33.3636 82.6687 33.3636ZM89.147 38.3239V34.4545H90.1527V41H89.147V39.892H89.0788C88.9254 40.2244 88.6868 40.5071 88.3629 40.7401C88.0391 40.9702 87.63 41.0852 87.1357 41.0852C86.7266 41.0852 86.3629 40.9957 86.0447 40.8168C85.7266 40.6349 85.4766 40.3622 85.2947 39.9986C85.1129 39.6321 85.022 39.1705 85.022 38.6136V34.4545H86.0277V38.5455C86.0277 39.0227 86.1612 39.4034 86.4283 39.6875C86.6982 39.9716 87.0419 40.1136 87.4595 40.1136C87.7095 40.1136 87.9638 40.0497 88.2223 39.9219C88.4837 39.794 88.7024 39.598 88.8786 39.3338C89.0575 39.0696 89.147 38.733 89.147 38.3239ZM93.0004 37.0625V41H91.9947V34.4545H92.9663V35.4773H93.0515C93.2049 35.1449 93.4379 34.8778 93.7504 34.6761C94.0629 34.4716 94.4663 34.3693 94.9606 34.3693C95.4038 34.3693 95.7915 34.4602 96.1239 34.642C96.4563 34.821 96.7148 35.0938 96.8995 35.4602C97.0842 35.8239 97.1765 36.2841 97.1765 36.8409V41H96.1708V36.9091C96.1708 36.3949 96.0373 35.9943 95.7702 35.7074C95.5032 35.4176 95.1367 35.2727 94.6708 35.2727C94.3498 35.2727 94.0629 35.3423 93.81 35.4815C93.56 35.6207 93.3626 35.8239 93.2177 36.0909C93.0728 36.358 93.0004 36.6818 93.0004 37.0625ZM102.372 41V40.233L105.253 37.0795C105.591 36.7102 105.869 36.3892 106.088 36.1165C106.307 35.8409 106.469 35.5824 106.574 35.3409C106.682 35.0966 106.736 34.8409 106.736 34.5739C106.736 34.267 106.662 34.0014 106.514 33.777C106.369 33.5526 106.17 33.3793 105.918 33.2571C105.665 33.1349 105.381 33.0739 105.065 33.0739C104.73 33.0739 104.438 33.1435 104.188 33.2827C103.94 33.419 103.749 33.6108 103.612 33.858C103.479 34.1051 103.412 34.3949 103.412 34.7273H102.406C102.406 34.2159 102.524 33.767 102.76 33.3807C102.996 32.9943 103.317 32.6932 103.723 32.4773C104.132 32.2614 104.591 32.1534 105.099 32.1534C105.611 32.1534 106.064 32.2614 106.459 32.4773C106.854 32.6932 107.163 32.9844 107.388 33.3509C107.612 33.7173 107.724 34.125 107.724 34.5739C107.724 34.8949 107.666 35.2088 107.55 35.5156C107.436 35.8196 107.237 36.1591 106.953 36.5341C106.672 36.9062 106.281 37.3608 105.781 37.8977L103.821 39.9943V40.0625H107.878V41H102.372ZM112.484 41.1193C111.842 41.1193 111.295 40.9446 110.844 40.5952C110.392 40.2429 110.047 39.733 109.808 39.0653C109.57 38.3949 109.45 37.5852 109.45 36.6364C109.45 35.6932 109.57 34.8878 109.808 34.2202C110.05 33.5497 110.396 33.0384 110.848 32.6861C111.303 32.331 111.848 32.1534 112.484 32.1534C113.121 32.1534 113.665 32.331 114.116 32.6861C114.571 33.0384 114.918 33.5497 115.156 34.2202C115.398 34.8878 115.518 35.6932 115.518 36.6364C115.518 37.5852 115.399 38.3949 115.161 39.0653C114.922 39.733 114.577 40.2429 114.125 40.5952C113.673 40.9446 113.126 41.1193 112.484 41.1193ZM112.484 40.1818C113.121 40.1818 113.615 39.875 113.967 39.2614C114.32 38.6477 114.496 37.7727 114.496 36.6364C114.496 35.8807 114.415 35.2372 114.253 34.706C114.094 34.1747 113.864 33.7699 113.562 33.4915C113.264 33.2131 112.905 33.0739 112.484 33.0739C111.854 33.0739 111.361 33.3849 111.006 34.0071C110.651 34.6264 110.473 35.5028 110.473 36.6364C110.473 37.392 110.553 38.0341 110.712 38.5625C110.871 39.0909 111.099 39.4929 111.398 39.7685C111.699 40.044 112.061 40.1818 112.484 40.1818ZM117.138 41V40.233L120.018 37.0795C120.357 36.7102 120.635 36.3892 120.854 36.1165C121.072 35.8409 121.234 35.5824 121.339 35.3409C121.447 35.0966 121.501 34.8409 121.501 34.5739C121.501 34.267 121.428 34.0014 121.28 33.777C121.135 33.5526 120.936 33.3793 120.683 33.2571C120.43 33.1349 120.146 33.0739 119.831 33.0739C119.496 33.0739 119.203 33.1435 118.953 33.2827C118.706 33.419 118.514 33.6108 118.378 33.858C118.244 34.1051 118.178 34.3949 118.178 34.7273H117.172C117.172 34.2159 117.29 33.767 117.526 33.3807C117.761 32.9943 118.082 32.6932 118.489 32.4773C118.898 32.2614 119.357 32.1534 119.865 32.1534C120.376 32.1534 120.83 32.2614 121.224 32.4773C121.619 32.6932 121.929 32.9844 122.153 33.3509C122.378 33.7173 122.49 34.125 122.49 34.5739C122.49 34.8949 122.432 35.2088 122.315 35.5156C122.202 35.8196 122.003 36.1591 121.719 36.5341C121.438 36.9062 121.047 37.3608 120.547 37.8977L118.587 39.9943V40.0625H122.643V41H117.138ZM127.352 41.1193C126.79 41.1193 126.288 41.0227 125.848 40.8295C125.411 40.6364 125.063 40.3679 124.804 40.0241C124.548 39.6776 124.409 39.2756 124.386 38.8182H125.46C125.483 39.0994 125.58 39.3423 125.75 39.5469C125.92 39.7486 126.143 39.9048 126.419 40.0156C126.695 40.1264 127 40.1818 127.335 40.1818C127.71 40.1818 128.043 40.1165 128.332 39.9858C128.622 39.8551 128.849 39.6733 129.014 39.4403C129.179 39.2074 129.261 38.9375 129.261 38.6307C129.261 38.3097 129.182 38.027 129.023 37.7827C128.864 37.5355 128.631 37.3423 128.324 37.2031C128.017 37.0639 127.642 36.9943 127.199 36.9943H126.5V36.0568H127.199C127.545 36.0568 127.849 35.9943 128.111 35.8693C128.375 35.7443 128.581 35.5682 128.729 35.3409C128.879 35.1136 128.955 34.8466 128.955 34.5398C128.955 34.2443 128.889 33.9872 128.759 33.7685C128.628 33.5497 128.443 33.3793 128.205 33.2571C127.969 33.1349 127.69 33.0739 127.369 33.0739C127.068 33.0739 126.784 33.1293 126.517 33.2401C126.253 33.348 126.037 33.5057 125.869 33.7131C125.702 33.9176 125.611 34.1648 125.597 34.4545H124.574C124.591 33.9972 124.729 33.5966 124.987 33.2528C125.246 32.9062 125.584 32.6364 126.001 32.4432C126.422 32.25 126.884 32.1534 127.386 32.1534C127.926 32.1534 128.389 32.2628 128.776 32.4815C129.162 32.6974 129.459 32.983 129.666 33.3381C129.874 33.6932 129.977 34.0767 129.977 34.4886C129.977 34.9801 129.848 35.3991 129.589 35.7457C129.334 36.0923 128.986 36.3324 128.545 36.4659V36.5341C129.097 36.625 129.527 36.8594 129.837 37.2372C130.146 37.6122 130.301 38.0767 130.301 38.6307C130.301 39.1051 130.172 39.5312 129.913 39.9091C129.658 40.2841 129.308 40.5795 128.865 40.7955C128.422 41.0114 127.918 41.1193 127.352 41.1193ZM139.186 36.1676V37.1051H135.368V36.1676H139.186ZM147.382 32.2727V41H146.325V33.3807H146.274L144.143 34.7955V33.7216L146.325 32.2727H147.382ZM152.619 41.1193C152.119 41.1193 151.669 41.0199 151.268 40.821C150.868 40.6222 150.547 40.3494 150.305 40.0028C150.064 39.6562 149.931 39.2614 149.909 38.8182H150.931C150.971 39.2131 151.15 39.5398 151.468 39.7983C151.789 40.054 152.173 40.1818 152.619 40.1818C152.977 40.1818 153.295 40.098 153.574 39.9304C153.855 39.7628 154.075 39.5327 154.234 39.2401C154.396 38.9446 154.477 38.6108 154.477 38.2386C154.477 37.858 154.393 37.5185 154.225 37.2202C154.061 36.919 153.833 36.6818 153.544 36.5085C153.254 36.3352 152.923 36.2472 152.551 36.2443C152.284 36.2415 152.01 36.2827 151.728 36.3679C151.447 36.4503 151.216 36.5568 151.034 36.6875L150.045 36.5682L150.574 32.2727H155.108V33.2102H151.46L151.153 35.7841H151.204C151.383 35.642 151.608 35.5241 151.877 35.4304C152.147 35.3366 152.429 35.2898 152.721 35.2898C153.255 35.2898 153.731 35.4176 154.149 35.6733C154.569 35.9261 154.899 36.2727 155.137 36.7131C155.379 37.1534 155.5 37.6562 155.5 38.2216C155.5 38.7784 155.375 39.2756 155.125 39.7131C154.877 40.1477 154.537 40.4915 154.102 40.7443C153.667 40.9943 153.173 41.1193 152.619 41.1193ZM160.585 34.4545H161.59V41.4773C161.59 41.8807 161.521 42.2301 161.381 42.5256C161.245 42.821 161.038 43.0497 160.759 43.2116C160.484 43.3736 160.136 43.4545 159.715 43.4545C159.681 43.4545 159.647 43.4545 159.613 43.4545C159.579 43.4545 159.545 43.4545 159.511 43.4545V42.517C159.545 42.517 159.576 42.517 159.604 42.517C159.633 42.517 159.664 42.517 159.698 42.517C160.005 42.517 160.229 42.4261 160.371 42.2443C160.513 42.0653 160.585 41.8097 160.585 41.4773V34.4545ZM161.079 33.3636C160.883 33.3636 160.714 33.2969 160.572 33.1634C160.433 33.0298 160.363 32.8693 160.363 32.6818C160.363 32.4943 160.433 32.3338 160.572 32.2003C160.714 32.0668 160.883 32 161.079 32C161.275 32 161.442 32.0668 161.582 32.2003C161.724 32.3338 161.795 32.4943 161.795 32.6818C161.795 32.8693 161.724 33.0298 161.582 33.1634C161.442 33.2969 161.275 33.3636 161.079 33.3636ZM167.557 38.3239V34.4545H168.563V41H167.557V39.892H167.489C167.336 40.2244 167.097 40.5071 166.773 40.7401C166.449 40.9702 166.04 41.0852 165.546 41.0852C165.137 41.0852 164.773 40.9957 164.455 40.8168C164.137 40.6349 163.887 40.3622 163.705 39.9986C163.523 39.6321 163.432 39.1705 163.432 38.6136V34.4545H164.438V38.5455C164.438 39.0227 164.571 39.4034 164.838 39.6875C165.108 39.9716 165.452 40.1136 165.87 40.1136C166.12 40.1136 166.374 40.0497 166.632 39.9219C166.894 39.794 167.113 39.598 167.289 39.3338C167.468 39.0696 167.557 38.733 167.557 38.3239ZM171.411 32.2727V41H170.405V32.2727H171.411ZM176.61 41V40.233L179.491 37.0795C179.829 36.7102 180.108 36.3892 180.326 36.1165C180.545 35.8409 180.707 35.5824 180.812 35.3409C180.92 35.0966 180.974 34.8409 180.974 34.5739C180.974 34.267 180.9 34.0014 180.752 33.777C180.608 33.5526 180.409 33.3793 180.156 33.2571C179.903 33.1349 179.619 33.0739 179.304 33.0739C178.968 33.0739 178.676 33.1435 178.426 33.2827C178.179 33.419 177.987 33.6108 177.85 33.858C177.717 34.1051 177.65 34.3949 177.65 34.7273H176.645C176.645 34.2159 176.762 33.767 176.998 33.3807C177.234 32.9943 177.555 32.6932 177.961 32.4773C178.37 32.2614 178.829 32.1534 179.338 32.1534C179.849 32.1534 180.302 32.2614 180.697 32.4773C181.092 32.6932 181.402 32.9844 181.626 33.3509C181.85 33.7173 181.963 34.125 181.963 34.5739C181.963 34.8949 181.904 35.2088 181.788 35.5156C181.674 35.8196 181.475 36.1591 181.191 36.5341C180.91 36.9062 180.52 37.3608 180.02 37.8977L178.059 39.9943V40.0625H182.116V41H176.61ZM186.723 41.1193C186.081 41.1193 185.534 40.9446 185.082 40.5952C184.63 40.2429 184.285 39.733 184.047 39.0653C183.808 38.3949 183.689 37.5852 183.689 36.6364C183.689 35.6932 183.808 34.8878 184.047 34.2202C184.288 33.5497 184.635 33.0384 185.086 32.6861C185.541 32.331 186.086 32.1534 186.723 32.1534C187.359 32.1534 187.903 32.331 188.355 32.6861C188.809 33.0384 189.156 33.5497 189.395 34.2202C189.636 34.8878 189.757 35.6932 189.757 36.6364C189.757 37.5852 189.637 38.3949 189.399 39.0653C189.16 39.733 188.815 40.2429 188.363 40.5952C187.912 40.9446 187.365 41.1193 186.723 41.1193ZM186.723 40.1818C187.359 40.1818 187.853 39.875 188.206 39.2614C188.558 38.6477 188.734 37.7727 188.734 36.6364C188.734 35.8807 188.653 35.2372 188.491 34.706C188.332 34.1747 188.102 33.7699 187.801 33.4915C187.502 33.2131 187.143 33.0739 186.723 33.0739C186.092 33.0739 185.599 33.3849 185.244 34.0071C184.889 34.6264 184.711 35.5028 184.711 36.6364C184.711 37.392 184.791 38.0341 184.95 38.5625C185.109 39.0909 185.338 39.4929 185.636 39.7685C185.937 40.044 186.299 40.1818 186.723 40.1818ZM191.376 41V40.233L194.257 37.0795C194.595 36.7102 194.873 36.3892 195.092 36.1165C195.311 35.8409 195.473 35.5824 195.578 35.3409C195.686 35.0966 195.74 34.8409 195.74 34.5739C195.74 34.267 195.666 34.0014 195.518 33.777C195.373 33.5526 195.174 33.3793 194.922 33.2571C194.669 33.1349 194.385 33.0739 194.069 33.0739C193.734 33.0739 193.441 33.1435 193.191 33.2827C192.944 33.419 192.752 33.6108 192.616 33.858C192.483 34.1051 192.416 34.3949 192.416 34.7273H191.41C191.41 34.2159 191.528 33.767 191.764 33.3807C192 32.9943 192.321 32.6932 192.727 32.4773C193.136 32.2614 193.595 32.1534 194.103 32.1534C194.615 32.1534 195.068 32.2614 195.463 32.4773C195.858 32.6932 196.167 32.9844 196.392 33.3509C196.616 33.7173 196.728 34.125 196.728 34.5739C196.728 34.8949 196.67 35.2088 196.554 35.5156C196.44 35.8196 196.241 36.1591 195.957 36.5341C195.676 36.9062 195.285 37.3608 194.785 37.8977L192.825 39.9943V40.0625H196.882V41H191.376ZM201.591 41.1193C201.028 41.1193 200.527 41.0227 200.086 40.8295C199.649 40.6364 199.301 40.3679 199.042 40.0241C198.787 39.6776 198.647 39.2756 198.625 38.8182H199.699C199.721 39.0994 199.818 39.3423 199.988 39.5469C200.159 39.7486 200.382 39.9048 200.657 40.0156C200.933 40.1264 201.238 40.1818 201.574 40.1818C201.949 40.1818 202.281 40.1165 202.571 39.9858C202.86 39.8551 203.088 39.6733 203.252 39.4403C203.417 39.2074 203.5 38.9375 203.5 38.6307C203.5 38.3097 203.42 38.027 203.261 37.7827C203.102 37.5355 202.869 37.3423 202.562 37.2031C202.255 37.0639 201.88 36.9943 201.437 36.9943H200.738V36.0568H201.437C201.784 36.0568 202.088 35.9943 202.349 35.8693C202.613 35.7443 202.819 35.5682 202.967 35.3409C203.118 35.1136 203.193 34.8466 203.193 34.5398C203.193 34.2443 203.127 33.9872 202.997 33.7685C202.866 33.5497 202.681 33.3793 202.443 33.2571C202.207 33.1349 201.929 33.0739 201.608 33.0739C201.306 33.0739 201.022 33.1293 200.755 33.2401C200.491 33.348 200.275 33.5057 200.108 33.7131C199.94 33.9176 199.849 34.1648 199.835 34.4545H198.812C198.829 33.9972 198.967 33.5966 199.225 33.2528C199.484 32.9062 199.822 32.6364 200.24 32.4432C200.66 32.25 201.122 32.1534 201.625 32.1534C202.164 32.1534 202.627 32.2628 203.014 32.4815C203.4 32.6974 203.697 32.983 203.904 33.3381C204.112 33.6932 204.216 34.0767 204.216 34.4886C204.216 34.9801 204.086 35.3991 203.828 35.7457C203.572 36.0923 203.224 36.3324 202.784 36.4659V36.5341C203.335 36.625 203.765 36.8594 204.075 37.2372C204.385 37.6122 204.539 38.0767 204.539 38.6307C204.539 39.1051 204.41 39.5312 204.152 39.9091C203.896 40.2841 203.547 40.5795 203.103 40.7955C202.66 41.0114 202.156 41.1193 201.591 41.1193Z" fill="#3E4954"/>
<path d="M66.4382 19V5.90909H74.5561V7.60938H68.4134V11.598H73.9744V13.2919H68.4134V19H66.4382ZM76.8317 19V9.18182H78.7429V19H76.8317ZM77.7969 7.6669C77.4645 7.6669 77.179 7.55611 76.9403 7.33452C76.706 7.10866 76.5888 6.8402 76.5888 6.52912C76.5888 6.21378 76.706 5.94531 76.9403 5.72372C77.179 5.49787 77.4645 5.38494 77.7969 5.38494C78.1293 5.38494 78.4126 5.49787 78.647 5.72372C78.8857 5.94531 79.005 6.21378 79.005 6.52912C79.005 6.8402 78.8857 7.10866 78.647 7.33452C78.4126 7.55611 78.1293 7.6669 77.7969 7.6669ZM83.2253 5.90909V19H81.3141V5.90909H83.2253ZM90.3796 9.18182V10.7159H85.0167V9.18182H90.3796ZM86.4549 6.82955H88.3661V16.1172C88.3661 16.4879 88.4215 16.767 88.5323 16.9545C88.6431 17.1378 88.7859 17.2635 88.9606 17.3317C89.1396 17.3956 89.3335 17.4276 89.5423 17.4276C89.6957 17.4276 89.8299 17.4169 89.945 17.3956C90.06 17.3743 90.1495 17.3572 90.2134 17.3445L90.5586 18.9233C90.4478 18.9659 90.2901 19.0085 90.0856 19.0511C89.881 19.098 89.6254 19.1236 89.3185 19.1278C88.8157 19.1364 88.3469 19.0469 87.9123 18.8594C87.4776 18.6719 87.1261 18.3821 86.8576 17.9901C86.5891 17.598 86.4549 17.1058 86.4549 16.5135V6.82955ZM96.6199 19.1982C95.6525 19.1982 94.8194 18.9915 94.1206 18.5781C93.426 18.1605 92.889 17.5746 92.5098 16.8203C92.1348 16.0618 91.9473 15.1733 91.9473 14.1548C91.9473 13.1491 92.1348 12.2628 92.5098 11.4957C92.889 10.7287 93.4174 10.13 94.095 9.69957C94.7768 9.26918 95.5737 9.05398 96.4856 9.05398C97.0396 9.05398 97.5765 9.1456 98.0964 9.32884C98.6163 9.51207 99.0829 9.79972 99.4963 10.1918C99.9096 10.5838 100.236 11.093 100.474 11.7195C100.713 12.3416 100.832 13.098 100.832 13.9886V14.6662H93.0275V13.2344H98.9593C98.9593 12.7315 98.8571 12.2862 98.6525 11.8984C98.448 11.5064 98.1603 11.1974 97.7896 10.9716C97.4231 10.7457 96.9927 10.6328 96.4984 10.6328C95.9615 10.6328 95.4927 10.7649 95.0922 11.0291C94.6958 11.2891 94.389 11.63 94.1717 12.0518C93.9586 12.4695 93.8521 12.9233 93.8521 13.4134V14.532C93.8521 15.1882 93.9672 15.7464 94.1973 16.2067C94.4316 16.6669 94.7576 17.0185 95.1752 17.2614C95.5929 17.5 96.0808 17.6193 96.639 17.6193C97.0012 17.6193 97.3315 17.5682 97.6298 17.4659C97.9281 17.3594 98.1859 17.2017 98.4032 16.9929C98.6206 16.7841 98.7868 16.5263 98.9018 16.2195L100.711 16.5455C100.566 17.0781 100.306 17.5447 99.9309 17.9453C99.5602 18.3416 99.0936 18.6506 98.5311 18.8722C97.9728 19.0895 97.3358 19.1982 96.6199 19.1982ZM102.953 19V9.18182H104.8V10.7415H104.902C105.081 10.2131 105.397 9.79758 105.848 9.49503C106.304 9.18821 106.82 9.0348 107.395 9.0348C107.515 9.0348 107.655 9.03906 107.817 9.04759C107.983 9.05611 108.113 9.06676 108.207 9.07955V10.9077C108.13 10.8864 107.994 10.8629 107.798 10.8374C107.602 10.8075 107.406 10.7926 107.21 10.7926C106.758 10.7926 106.355 10.8885 106.002 11.0803C105.652 11.2678 105.375 11.5298 105.171 11.8665C104.966 12.1989 104.864 12.5781 104.864 13.0043V19H102.953ZM114.778 19V5.90909H119.444C120.463 5.90909 121.306 6.09446 121.975 6.4652C122.645 6.83594 123.145 7.34304 123.478 7.98651C123.81 8.62571 123.976 9.34588 123.976 10.147C123.976 10.9524 123.808 11.6768 123.471 12.3203C123.139 12.9595 122.636 13.4666 121.963 13.8416C121.294 14.2124 120.452 14.3977 119.438 14.3977H116.229V12.723H119.259C119.902 12.723 120.424 12.6122 120.825 12.3906C121.225 12.1648 121.52 11.858 121.707 11.4702C121.895 11.0824 121.988 10.6413 121.988 10.147C121.988 9.6527 121.895 9.21378 121.707 8.83026C121.52 8.44673 121.223 8.14631 120.819 7.92898C120.418 7.71165 119.89 7.60298 119.233 7.60298H116.753V19H114.778ZM130.247 19.1982C129.279 19.1982 128.446 18.9915 127.748 18.5781C127.053 18.1605 126.516 17.5746 126.137 16.8203C125.762 16.0618 125.574 15.1733 125.574 14.1548C125.574 13.1491 125.762 12.2628 126.137 11.4957C126.516 10.7287 127.044 10.13 127.722 9.69957C128.404 9.26918 129.201 9.05398 130.113 9.05398C130.667 9.05398 131.203 9.1456 131.723 9.32884C132.243 9.51207 132.71 9.79972 133.123 10.1918C133.537 10.5838 133.863 11.093 134.101 11.7195C134.34 12.3416 134.459 13.098 134.459 13.9886V14.6662H126.654V13.2344H132.586C132.586 12.7315 132.484 12.2862 132.279 11.8984C132.075 11.5064 131.787 11.1974 131.417 10.9716C131.05 10.7457 130.62 10.6328 130.125 10.6328C129.588 10.6328 129.12 10.7649 128.719 11.0291C128.323 11.2891 128.016 11.63 127.799 12.0518C127.586 12.4695 127.479 12.9233 127.479 13.4134V14.532C127.479 15.1882 127.594 15.7464 127.824 16.2067C128.059 16.6669 128.385 17.0185 128.802 17.2614C129.22 17.5 129.708 17.6193 130.266 17.6193C130.628 17.6193 130.958 17.5682 131.257 17.4659C131.555 17.3594 131.813 17.2017 132.03 16.9929C132.248 16.7841 132.414 16.5263 132.529 16.2195L134.338 16.5455C134.193 17.0781 133.933 17.5447 133.558 17.9453C133.187 18.3416 132.721 18.6506 132.158 18.8722C131.6 19.0895 130.963 19.1982 130.247 19.1982ZM136.58 19V9.18182H138.427V10.7415H138.529C138.708 10.2131 139.024 9.79758 139.475 9.49503C139.931 9.18821 140.447 9.0348 141.022 9.0348C141.142 9.0348 141.282 9.03906 141.444 9.04759C141.61 9.05611 141.74 9.06676 141.834 9.07955V10.9077C141.757 10.8864 141.621 10.8629 141.425 10.8374C141.229 10.8075 141.033 10.7926 140.837 10.7926C140.385 10.7926 139.982 10.8885 139.629 11.0803C139.279 11.2678 139.002 11.5298 138.798 11.8665C138.593 12.1989 138.491 12.5781 138.491 13.0043V19H136.58ZM143.488 19V9.18182H145.399V19H143.488ZM144.453 7.6669C144.121 7.6669 143.835 7.55611 143.597 7.33452C143.362 7.10866 143.245 6.8402 143.245 6.52912C143.245 6.21378 143.362 5.94531 143.597 5.72372C143.835 5.49787 144.121 5.38494 144.453 5.38494C144.786 5.38494 145.069 5.49787 145.303 5.72372C145.542 5.94531 145.661 6.21378 145.661 6.52912C145.661 6.8402 145.542 7.10866 145.303 7.33452C145.069 7.55611 144.786 7.6669 144.453 7.6669ZM152.106 19.1982C151.186 19.1982 150.382 18.9872 149.696 18.5653C149.01 18.1435 148.477 17.5533 148.098 16.7947C147.719 16.0362 147.529 15.1499 147.529 14.1357C147.529 13.1172 147.719 12.2266 148.098 11.4638C148.477 10.701 149.01 10.1087 149.696 9.68679C150.382 9.26491 151.186 9.05398 152.106 9.05398C153.026 9.05398 153.83 9.26491 154.516 9.68679C155.202 10.1087 155.735 10.701 156.114 11.4638C156.493 12.2266 156.683 13.1172 156.683 14.1357C156.683 15.1499 156.493 16.0362 156.114 16.7947C155.735 17.5533 155.202 18.1435 154.516 18.5653C153.83 18.9872 153.026 19.1982 152.106 19.1982ZM152.112 17.5938C152.709 17.5938 153.203 17.4361 153.595 17.1207C153.987 16.8054 154.277 16.3857 154.465 15.8615C154.656 15.3374 154.752 14.7599 154.752 14.1293C154.752 13.5028 154.656 12.9276 154.465 12.4034C154.277 11.875 153.987 11.451 153.595 11.1314C153.203 10.8118 152.709 10.652 152.112 10.652C151.512 10.652 151.013 10.8118 150.617 11.1314C150.225 11.451 149.933 11.875 149.741 12.4034C149.553 12.9276 149.46 13.5028 149.46 14.1293C149.46 14.7599 149.553 15.3374 149.741 15.8615C149.933 16.3857 150.225 16.8054 150.617 17.1207C151.013 17.4361 151.512 17.5938 152.112 17.5938ZM162.491 19.1918C161.699 19.1918 160.991 18.9893 160.369 18.5845C159.751 18.1754 159.266 17.5937 158.912 16.8395C158.563 16.081 158.388 15.1712 158.388 14.1101C158.388 13.049 158.565 12.1413 158.918 11.3871C159.276 10.6328 159.766 10.0554 160.388 9.65483C161.011 9.25426 161.716 9.05398 162.504 9.05398C163.114 9.05398 163.604 9.15625 163.974 9.3608C164.349 9.56108 164.639 9.79545 164.844 10.0639C165.053 10.3324 165.214 10.5689 165.33 10.7734H165.445V5.90909H167.356V19H165.489V17.4723H165.33C165.214 17.6811 165.048 17.9197 164.831 18.1882C164.618 18.4567 164.324 18.6911 163.949 18.8913C163.574 19.0916 163.088 19.1918 162.491 19.1918ZM162.913 17.5618C163.463 17.5618 163.928 17.4169 164.307 17.1271C164.69 16.8331 164.98 16.4261 165.176 15.9062C165.376 15.3864 165.477 14.7812 165.477 14.0909C165.477 13.4091 165.379 12.8125 165.183 12.3011C164.987 11.7898 164.699 11.3913 164.32 11.1058C163.94 10.8203 163.472 10.6776 162.913 10.6776C162.338 10.6776 161.859 10.8267 161.475 11.125C161.092 11.4233 160.802 11.8303 160.606 12.3459C160.414 12.8615 160.318 13.4432 160.318 14.0909C160.318 14.7472 160.416 15.3374 160.612 15.8615C160.808 16.3857 161.098 16.8011 161.482 17.108C161.869 17.4105 162.347 17.5618 162.913 17.5618ZM174.315 19.1982C173.348 19.1982 172.515 18.9915 171.816 18.5781C171.121 18.1605 170.584 17.5746 170.205 16.8203C169.83 16.0618 169.643 15.1733 169.643 14.1548C169.643 13.1491 169.83 12.2628 170.205 11.4957C170.584 10.7287 171.113 10.13 171.79 9.69957C172.472 9.26918 173.269 9.05398 174.181 9.05398C174.735 9.05398 175.272 9.1456 175.792 9.32884C176.312 9.51207 176.778 9.79972 177.192 10.1918C177.605 10.5838 177.931 11.093 178.17 11.7195C178.408 12.3416 178.528 13.098 178.528 13.9886V14.6662H170.723V13.2344H176.655C176.655 12.7315 176.552 12.2862 176.348 11.8984C176.143 11.5064 175.856 11.1974 175.485 10.9716C175.118 10.7457 174.688 10.6328 174.194 10.6328C173.657 10.6328 173.188 10.7649 172.787 11.0291C172.391 11.2891 172.084 11.63 171.867 12.0518C171.654 12.4695 171.547 12.9233 171.547 13.4134V14.532C171.547 15.1882 171.662 15.7464 171.893 16.2067C172.127 16.6669 172.453 17.0185 172.871 17.2614C173.288 17.5 173.776 17.6193 174.334 17.6193C174.697 17.6193 175.027 17.5682 175.325 17.4659C175.623 17.3594 175.881 17.2017 176.099 16.9929C176.316 16.7841 176.482 16.5263 176.597 16.2195L178.406 16.5455C178.261 17.0781 178.001 17.5447 177.626 17.9453C177.256 18.3416 176.789 18.6506 176.226 18.8722C175.668 19.0895 175.031 19.1982 174.315 19.1982Z" fill="#3E4954"/>
<path d="M15.5 36.75H32.5C33.6272 36.75 34.7082 36.3023 35.5052 35.5052C36.3022 34.7082 36.75 33.6272 36.75 32.5V15.5C36.75 14.3729 36.3022 13.2919 35.5052 12.4948C34.7082 11.6978 33.6272 11.25 32.5 11.25H31.0833C31.0833 10.8743 30.9341 10.514 30.6684 10.2483C30.4027 9.98263 30.0424 9.83337 29.6667 9.83337C29.2909 9.83337 28.9306 9.98263 28.6649 10.2483C28.3993 10.514 28.25 10.8743 28.25 11.25H19.75C19.75 10.8743 19.6007 10.514 19.3351 10.2483C19.0694 9.98263 18.7091 9.83337 18.3333 9.83337C17.9576 9.83337 17.5973 9.98263 17.3316 10.2483C17.0659 10.514 16.9167 10.8743 16.9167 11.25H15.5C14.3728 11.25 13.2918 11.6978 12.4948 12.4948C11.6978 13.2919 11.25 14.3729 11.25 15.5V32.5C11.25 33.6272 11.6978 34.7082 12.4948 35.5052C13.2918 36.3023 14.3728 36.75 15.5 36.75ZM14.0833 15.5C14.0833 15.1243 14.2326 14.764 14.4983 14.4983C14.7639 14.2326 15.1243 14.0834 15.5 14.0834H16.9167V15.5C16.9167 15.8758 17.0659 16.2361 17.3316 16.5018C17.5973 16.7675 17.9576 16.9167 18.3333 16.9167C18.7091 16.9167 19.0694 16.7675 19.3351 16.5018C19.6007 16.2361 19.75 15.8758 19.75 15.5V14.0834H28.25V15.5C28.25 15.8758 28.3993 16.2361 28.6649 16.5018C28.9306 16.7675 29.2909 16.9167 29.6667 16.9167C30.0424 16.9167 30.4027 16.7675 30.6684 16.5018C30.9341 16.2361 31.0833 15.8758 31.0833 15.5V14.0834H32.5C32.8757 14.0834 33.2361 14.2326 33.5017 14.4983C33.7674 14.764 33.9167 15.1243 33.9167 15.5V19.75H14.0833V15.5ZM14.0833 22.5834H33.9167V32.5C33.9167 32.8758 33.7674 33.2361 33.5017 33.5018C33.2361 33.7675 32.8757 33.9167 32.5 33.9167H15.5C15.1243 33.9167 14.7639 33.7675 14.4983 33.5018C14.2326 33.2361 14.0833 32.8758 14.0833 32.5V22.5834Z" fill="#006169"/>
<rect width="48" height="48" rx="15" fill="#6C5DD3" fill-opacity="0.15"/>
<path d="M232.989 26.4717C232.758 26.4697 232.537 26.378 232.372 26.216L223.645 17.4888C223.486 17.3242 223.398 17.1037 223.4 16.8749C223.402 16.646 223.494 16.4272 223.656 16.2653C223.817 16.1035 224.036 16.0118 224.265 16.0098C224.494 16.0078 224.714 16.0957 224.879 16.2547L232.989 24.365L241.099 16.2547C241.18 16.1714 241.276 16.1049 241.383 16.0591C241.489 16.0134 241.604 15.9893 241.72 15.9883C241.835 15.9873 241.95 16.0094 242.058 16.0533C242.165 16.0972 242.262 16.162 242.344 16.2439C242.426 16.3258 242.491 16.4233 242.535 16.5305C242.579 16.6378 242.601 16.7527 242.6 16.8686C242.599 16.9845 242.575 17.099 242.529 17.2055C242.483 17.3119 242.417 17.4082 242.333 17.4888L233.606 26.216C233.441 26.378 233.22 26.4697 232.989 26.4717Z" fill="#B9BBBD"/>
</svg>
