<svg width="25" height="30" viewBox="0 0 25 30" fill="none" xmlns="http://www.w3.org/2000/svg">
<circle cx="12.5" cy="17.5" r="12.5" fill="url(#paint0_linear_4_2620)"/>
<path d="M9.66477 13.2727V22H8.8679V14.108H8.81676L6.77131 15.4673V14.6406L8.83381 13.2727H9.66477ZM15.1839 22.1193C14.8231 22.1165 14.4709 22.044 14.1271 21.902C13.7834 21.7571 13.4737 21.5256 13.1981 21.2074C12.9226 20.8864 12.7038 20.4631 12.5419 19.9375C12.3799 19.4119 12.299 18.7656 12.299 17.9986C12.299 17.2884 12.3615 16.6378 12.4865 16.0469C12.6115 15.456 12.799 14.9446 13.049 14.5128C13.299 14.081 13.6115 13.7472 13.9865 13.5114C14.3615 13.2727 14.8004 13.1534 15.3032 13.1534C15.7748 13.1534 16.191 13.2514 16.5518 13.4474C16.9126 13.6406 17.2052 13.9105 17.4297 14.2571C17.6541 14.6037 17.7947 15.0028 17.8515 15.4545H17.0674C16.9879 14.9943 16.799 14.6151 16.5007 14.3168C16.2024 14.0185 15.8032 13.8693 15.3032 13.8693C14.5873 13.8693 14.0334 14.2017 13.6413 14.8665C13.2493 15.5284 13.0518 16.4688 13.049 17.6875H13.1044C13.2436 17.429 13.4226 17.206 13.6413 17.0185C13.8629 16.8281 14.1143 16.6804 14.3956 16.5753C14.6768 16.4673 14.9723 16.4134 15.2819 16.4134C15.7677 16.4134 16.2123 16.5369 16.6157 16.7841C17.0191 17.0284 17.3416 17.3651 17.5831 17.794C17.8245 18.2202 17.9453 18.7074 17.9453 19.2557C17.9453 19.7756 17.8302 20.2543 17.6001 20.6918C17.3728 21.1293 17.0518 21.4773 16.637 21.7358C16.2251 21.9943 15.7407 22.1222 15.1839 22.1193ZM15.1839 21.4034C15.5646 21.4034 15.9041 21.3068 16.2024 21.1136C16.5035 20.9205 16.7407 20.6619 16.914 20.3381C17.0873 20.0114 17.174 19.6506 17.174 19.2557C17.174 18.8608 17.0873 18.5028 16.914 18.1818C16.7407 17.8608 16.5035 17.6051 16.2024 17.4148C15.9041 17.2244 15.5646 17.1293 15.1839 17.1293C14.8941 17.1293 14.6243 17.1889 14.3743 17.3082C14.1243 17.4247 13.9069 17.5852 13.7223 17.7898C13.5405 17.9915 13.4012 18.223 13.3047 18.4844C13.2109 18.7457 13.1754 19.0199 13.1981 19.3068C13.2294 19.7074 13.3331 20.0668 13.5092 20.3849C13.6882 20.7003 13.9211 20.9489 14.2081 21.1307C14.4978 21.3125 14.8231 21.4034 15.1839 21.4034Z" fill="white"/>
<circle cx="19" cy="6" r="4.75" fill="#FD6A6A" stroke="white" stroke-width="1.5"/>
<defs>
<linearGradient id="paint0_linear_4_2620" x1="12.5" y1="5" x2="12.5" y2="30" gradientUnits="userSpaceOnUse">
<stop stop-color="#006169"/>
<stop offset="1" stop-color="#0F97D7"/>
</linearGradient>
</defs>
</svg>
